<svg xmlns="http://www.w3.org/2000/svg" viewBox="0 0 538 138" width="538" height="138">
  <title>Advisory Board Unlimited — Open Tracking lockup</title>
  <desc>Wordmark for Advisory Board Unlimited (a signup academy product). Outlined Open Sans Light. White wordmark with gold &#34;unlimited&#34;. Transparent background; intended for dark surfaces.</desc>
  <path fill="#FFFFFF" d="M25.50 81.44L25.50 81.44Q31.09 81.44 33.88 84.25Q36.66 87.06 36.66 93.22L36.66 93.22L36.66 116L34.22 116L33.66 110.06L33.47 110.06Q32.38 111.97 30.81 113.45Q29.25 114.94 26.98 115.78Q24.72 116.63 21.47 116.63L21.47 116.63Q18.19 116.63 15.86 115.53Q13.53 114.44 12.27 112.34Q11 110.25 11 107.25L11 107.25Q11 102.19 15.19 99.55Q19.38 96.91 27.22 96.56L27.22 96.56L33.53 96.25L33.53 93.78Q33.53 88.56 31.47 86.34Q29.41 84.13 25.38 84.13L25.38 84.13Q22.75 84.13 20.33 84.80Q17.91 85.47 15.41 86.72L15.41 86.72L14.41 84.09Q16.84 82.94 19.64 82.19Q22.44 81.44 25.50 81.44ZM33.50 102.06L33.50 98.72L27.56 98.97Q21.09 99.28 17.72 101.28Q14.34 103.28 14.34 107.28L14.34 107.28Q14.34 110.50 16.36 112.22Q18.38 113.94 21.97 113.94L21.97 113.94Q27.56 113.94 30.52 110.75Q33.47 107.56 33.50 102.06L33.50 102.06Z M58.34 116.63L58.34 116.63Q51.38 116.63 47.73 112.23Q44.09 107.84 44.09 99.44L44.09 99.44Q44.09 90.63 47.94 86Q51.78 81.38 58.66 81.38L58.66 81.38Q61.59 81.38 63.77 82.28Q65.94 83.19 67.42 84.73Q68.91 86.28 69.72 88.25L69.72 88.25L69.97 88.25Q69.84 86.59 69.78 84.69Q69.72 82.78 69.72 81.19L69.72 81.19L69.72 67.38L72.88 67.38L72.88 116L70.31 116L69.91 109.78L69.72 109.78Q68.88 111.66 67.39 113.22Q65.91 114.78 63.69 115.70Q61.47 116.63 58.34 116.63ZM58.69 113.88L58.69 113.88Q64.69 113.88 67.22 110.14Q69.75 106.41 69.75 99.47L69.75 99.47Q69.75 91.78 67.22 87.95Q64.69 84.13 58.97 84.13L58.97 84.13Q53.31 84.13 50.33 88.06Q47.34 92 47.34 99.50L47.34 99.50Q47.34 106.56 50.14 110.22Q52.94 113.88 58.69 113.88Z M93.34 116L90.03 116L77 82.03L80.34 82.03L89.06 105.19Q89.88 107.28 90.52 109.20Q91.16 111.13 91.59 112.69L91.59 112.69L91.75 112.69Q92.25 111.13 92.89 109.19Q93.53 107.25 94.31 105.19L94.31 105.19L103.03 82.03L106.41 82.03L93.34 116Z M110.53 82.03L113.69 82.03L113.69 116L110.53 116L110.53 82.03ZM112.16 69.47L112.16 69.47Q113.34 69.47 113.91 70.17Q114.47 70.88 114.47 72.06L114.47 72.06Q114.47 73.25 113.91 73.94Q113.34 74.63 112.16 74.63L112.16 74.63Q111.03 74.63 110.47 73.94Q109.91 73.25 109.91 72.06L109.91 72.06Q109.91 70.88 110.47 70.17Q111.03 69.47 112.16 69.47Z M144.75 107.09L144.75 107.09Q144.75 110.13 143.23 112.27Q141.72 114.41 138.81 115.52Q135.91 116.63 131.66 116.63L131.66 116.63Q128.13 116.63 125.34 116Q122.56 115.38 120.69 114.47L120.69 114.47L120.69 111.34Q123.03 112.50 125.88 113.22Q128.72 113.94 131.72 113.94L131.72 113.94Q136.97 113.94 139.28 112.16Q141.59 110.38 141.59 107.28L141.59 107.28Q141.59 105.25 140.45 103.92Q139.31 102.59 137.19 101.63Q135.06 100.66 132.06 99.66L132.06 99.66Q128.94 98.59 126.52 97.55Q124.09 96.50 122.72 94.77Q121.34 93.03 121.34 90.03L121.34 90.03Q121.34 85.94 124.63 83.66Q127.91 81.38 133.44 81.38L133.44 81.38Q136.50 81.38 139.14 81.95Q141.78 82.53 143.94 83.44L143.94 83.44L142.81 86.13Q140.88 85.22 138.34 84.66Q135.81 84.09 133.28 84.09L133.28 84.09Q129.13 84.09 126.78 85.56Q124.44 87.03 124.44 89.88L124.44 89.88Q124.44 92.06 125.56 93.30Q126.69 94.53 128.78 95.36Q130.88 96.19 133.75 97.19L133.75 97.19Q136.72 98.22 139.23 99.34Q141.75 100.47 143.25 102.25Q144.75 104.03 144.75 107.09Z M180 98.97L180 98.97Q180 102.91 179.03 106.14Q178.06 109.38 176.16 111.72Q174.25 114.06 171.42 115.34Q168.59 116.63 164.84 116.63L164.84 116.63Q161.28 116.63 158.50 115.36Q155.72 114.09 153.80 111.75Q151.88 109.41 150.88 106.17Q149.88 102.94 149.88 98.97L149.88 98.97Q149.88 93.50 151.70 89.55Q153.53 85.59 156.95 83.48Q160.38 81.38 165.16 81.38L165.16 81.38Q170.09 81.38 173.39 83.61Q176.69 85.84 178.34 89.81Q180 93.78 180 98.97ZM153.13 98.97L153.13 98.97Q153.13 103.44 154.41 106.78Q155.69 110.13 158.30 112Q160.91 113.88 164.91 113.88L164.91 113.88Q169 113.88 171.63 112Q174.25 110.13 175.50 106.75Q176.75 103.38 176.75 98.97L176.75 98.97Q176.75 94.69 175.56 91.34Q174.38 88 171.81 86.08Q169.25 84.16 165.13 84.16L165.13 84.16Q159.22 84.16 156.17 88.09Q153.13 92.03 153.13 98.97Z M201.38 81.44L201.38 81.44Q202.72 81.44 203.91 81.59Q205.09 81.75 206.13 82.03L206.13 82.03L205.63 84.94Q204.59 84.66 203.53 84.52Q202.47 84.38 201.25 84.38L201.25 84.38Q198.84 84.38 196.95 85.28Q195.06 86.19 193.75 87.88Q192.44 89.56 191.75 91.94Q191.06 94.31 191.06 97.25L191.06 97.25L191.06 116L187.88 116L187.88 82.03L190.59 82.03L190.91 88.44L191.09 88.44Q191.88 86.47 193.30 84.89Q194.72 83.31 196.75 82.38Q198.78 81.44 201.38 81.44Z M218.88 115.81L205.66 82.03L209 82.03L217.25 103.59Q218 105.50 218.58 107.11Q219.16 108.72 219.59 110.05Q220.03 111.38 220.31 112.47L220.31 112.47L220.50 112.47Q220.97 111.03 221.75 108.77Q222.53 106.50 223.53 103.72L223.53 103.72L231.69 82.03L235.06 82.03L219.56 122.38Q218.44 125.31 217.09 127.36Q215.75 129.41 213.94 130.45Q212.13 131.50 209.56 131.50L209.56 131.50Q208.41 131.50 207.47 131.33Q206.53 131.16 205.66 130.88L205.66 130.88L205.66 128.16Q206.47 128.41 207.33 128.58Q208.19 128.75 209.22 128.75L209.22 128.75Q211 128.75 212.30 128.02Q213.59 127.28 214.63 125.75Q215.66 124.22 216.56 121.84L216.56 121.84L218.88 115.81Z M244.16 23.31L250.18 23.31L250.18 49.64Q250.18 53.03 250.06 57.08Q249.94 61.14 249.82 63.82L249.82 63.82L250.18 63.82Q252.50 57.80 258.28 53.87Q264.06 49.94 272.70 49.94L272.70 49.94Q285.33 49.94 292.21 58.46Q299.09 66.97 299.09 83.42L299.09 83.42Q299.09 93.48 295.99 101.08Q292.89 108.67 286.79 112.93Q280.68 117.19 271.51 117.19L271.51 117.19Q263.23 117.19 257.98 113.71Q252.74 110.22 250.36 104.98L250.36 104.98L249.88 104.98L248.75 116L244.16 116L244.16 23.31ZM272.04 55.18L272.04 55.18Q264.36 55.18 259.53 58.48Q254.71 61.79 252.44 68.11Q250.18 74.42 250.18 83.53L250.18 83.53L250.18 84.49Q250.18 97.89 255.06 104.92Q259.95 111.95 270.91 111.95L270.91 111.95Q281.75 111.95 287.32 104.53Q292.89 97.12 292.89 83.42L292.89 83.42Q292.89 69.42 287.71 62.30Q282.53 55.18 272.04 55.18Z M340.94 70.97L340.94 70.97Q340.94 74.91 339.97 78.14Q339.00 81.38 337.10 83.72Q335.19 86.06 332.36 87.34Q329.54 88.63 325.79 88.63L325.79 88.63Q322.22 88.63 319.44 87.36Q316.66 86.09 314.74 83.75Q312.82 81.41 311.82 78.17Q310.82 74.94 310.82 70.97L310.82 70.97Q310.82 65.50 312.65 61.55Q314.47 57.59 317.90 55.48Q321.32 53.38 326.10 53.38L326.10 53.38Q331.04 53.38 334.33 55.61Q337.63 57.84 339.29 61.81Q340.94 65.78 340.94 70.97ZM314.07 70.97L314.07 70.97Q314.07 75.44 315.35 78.78Q316.63 82.13 319.24 84Q321.85 85.88 325.85 85.88L325.85 85.88Q329.94 85.88 332.57 84Q335.19 82.13 336.44 78.75Q337.69 75.38 337.69 70.97L337.69 70.97Q337.69 66.69 336.50 63.34Q335.32 60 332.75 58.08Q330.19 56.16 326.07 56.16L326.07 56.16Q320.16 56.16 317.11 60.09Q314.07 64.03 314.07 70.97Z M361.16 53.44L361.16 53.44Q366.75 53.44 369.54 56.25Q372.32 59.06 372.32 65.22L372.32 65.22L372.32 88L369.88 88L369.32 82.06L369.13 82.06Q368.04 83.97 366.47 85.45Q364.91 86.94 362.65 87.78Q360.38 88.63 357.13 88.63L357.13 88.63Q353.85 88.63 351.52 87.53Q349.19 86.44 347.93 84.34Q346.66 82.25 346.66 79.25L346.66 79.25Q346.66 74.19 350.85 71.55Q355.04 68.91 362.88 68.56L362.88 68.56L369.19 68.25L369.19 65.78Q369.19 60.56 367.13 58.34Q365.07 56.13 361.04 56.13L361.04 56.13Q358.41 56.13 355.99 56.80Q353.57 57.47 351.07 58.72L351.07 58.72L350.07 56.09Q352.50 54.94 355.30 54.19Q358.10 53.44 361.16 53.44ZM369.16 74.06L369.16 70.72L363.22 70.97Q356.75 71.28 353.38 73.28Q350.00 75.28 350.00 79.28L350.00 79.28Q350.00 82.50 352.02 84.22Q354.04 85.94 357.63 85.94L357.63 85.94Q363.22 85.94 366.18 82.75Q369.13 79.56 369.16 74.06L369.16 74.06Z M395.72 53.44L395.72 53.44Q397.07 53.44 398.25 53.59Q399.44 53.75 400.47 54.03L400.47 54.03L399.97 56.94Q398.94 56.66 397.88 56.52Q396.82 56.38 395.60 56.38L395.60 56.38Q393.19 56.38 391.30 57.28Q389.41 58.19 388.10 59.88Q386.79 61.56 386.10 63.94Q385.41 66.31 385.41 69.25L385.41 69.25L385.41 88L382.22 88L382.22 54.03L384.94 54.03L385.25 60.44L385.44 60.44Q386.22 58.47 387.65 56.89Q389.07 55.31 391.10 54.38Q393.13 53.44 395.72 53.44Z M418.41 88.63L418.41 88.63Q411.44 88.63 407.80 84.23Q404.16 79.84 404.16 71.44L404.16 71.44Q404.16 62.63 408.00 58Q411.85 53.38 418.72 53.38L418.72 53.38Q421.66 53.38 423.83 54.28Q426.00 55.19 427.49 56.73Q428.97 58.28 429.79 60.25L429.79 60.25L430.04 60.25Q429.91 58.59 429.85 56.69Q429.79 54.78 429.79 53.19L429.79 53.19L429.79 39.38L432.94 39.38L432.94 88L430.38 88L429.97 81.78L429.79 81.78Q428.94 83.66 427.46 85.22Q425.97 86.78 423.75 87.70Q421.54 88.63 418.41 88.63ZM418.75 85.88L418.75 85.88Q424.75 85.88 427.29 82.14Q429.82 78.41 429.82 71.47L429.82 71.47L429.82 70.97Q429.82 63.78 427.29 59.95Q424.75 56.13 419.04 56.13L419.04 56.13Q413.38 56.13 410.40 60.06Q407.41 64 407.41 71.50L407.41 71.50Q407.41 78.56 410.21 82.22Q413.00 85.88 418.75 85.88Z"></path>
  <path fill="#B4965D" d="M320.47 97.95L322.15 97.95L322.15 116L320.79 116L320.54 112.75L320.44 112.75Q319.97 113.74 319.13 114.56Q318.28 115.37 317.05 115.85Q315.82 116.33 314.19 116.33L314.19 116.33Q312.12 116.33 310.72 115.61Q309.31 114.89 308.60 113.43Q307.89 111.97 307.89 109.77L307.89 109.77L307.89 97.95L309.56 97.95L309.56 109.61Q309.56 112.31 310.78 113.59Q312.00 114.87 314.36 114.87L314.36 114.87Q316.35 114.87 317.71 114.11Q319.06 113.34 319.76 111.79Q320.47 110.24 320.47 107.92L320.47 107.92L320.47 97.95Z M345.14 97.61L345.14 97.61Q348.18 97.61 349.81 99.20Q351.43 100.79 351.43 104.20L351.43 104.20L351.43 116L349.77 116L349.77 104.30Q349.77 101.61 348.55 100.34Q347.32 99.08 344.98 99.08L344.98 99.08Q342.00 99.08 340.44 100.82Q338.87 102.55 338.87 106.06L338.87 106.06L338.87 116L337.19 116L337.19 97.95L338.55 97.95L338.80 101.24L338.90 101.24Q339.38 100.23 340.22 99.41Q341.06 98.58 342.29 98.10Q343.51 97.61 345.14 97.61Z M367.97 90.17L367.97 116L366.28 116L366.28 90.17L367.97 90.17Z M382.95 97.95L384.62 97.95L384.62 116L382.95 116L382.95 97.95ZM383.81 91.28L383.81 91.28Q384.44 91.28 384.74 91.65Q385.04 92.03 385.04 92.66L385.04 92.66Q385.04 93.29 384.74 93.65Q384.44 94.02 383.81 94.02L383.81 94.02Q383.21 94.02 382.91 93.65Q382.62 93.29 382.62 92.66L382.62 92.66Q382.62 92.03 382.91 91.65Q383.21 91.28 383.81 91.28Z M418.26 97.61L418.26 97.61Q420.87 97.61 422.38 99.12Q423.89 100.63 423.89 103.88L423.89 103.88L423.89 116L422.25 116L422.25 103.95Q422.25 101.44 421.10 100.26Q419.95 99.08 418.08 99.08L418.08 99.08Q415.50 99.08 414.05 100.59Q412.60 102.09 412.60 105.31L412.60 105.31L412.60 116L410.94 116L410.94 103.95Q410.94 102.27 410.42 101.20Q409.89 100.13 408.96 99.61Q408.03 99.08 406.77 99.08L406.77 99.08Q405.10 99.08 403.87 99.77Q402.64 100.46 401.97 101.90Q401.31 103.33 401.31 105.54L401.31 105.54L401.31 116L399.63 116L399.63 97.95L401.00 97.95L401.24 100.91L401.34 100.91Q401.79 100.03 402.54 99.28Q403.29 98.54 404.39 98.07Q405.49 97.61 406.99 97.61L406.99 97.61Q408.93 97.61 410.28 98.48Q411.64 99.35 412.17 101.06L412.17 101.06L412.28 101.06Q413.01 99.43 414.55 98.52Q416.09 97.61 418.26 97.61Z M438.67 97.95L440.34 97.95L440.34 116L438.67 116L438.67 97.95ZM439.53 91.28L439.53 91.28Q440.16 91.28 440.46 91.65Q440.76 92.03 440.76 92.66L440.76 92.66Q440.76 93.29 440.46 93.65Q440.16 94.02 439.53 94.02L439.53 94.02Q438.93 94.02 438.63 93.65Q438.33 93.29 438.33 92.66L438.33 92.66Q438.33 92.03 438.63 91.65Q438.93 91.28 439.53 91.28Z M460.23 114.89L460.23 114.89Q461.01 114.89 461.69 114.77Q462.36 114.66 462.87 114.47L462.87 114.47L462.87 115.87Q462.34 116.05 461.63 116.19Q460.91 116.33 460.05 116.33L460.05 116.33Q458.52 116.33 457.51 115.76Q456.50 115.19 455.98 114.02Q455.47 112.85 455.47 111.04L455.47 111.04L455.47 99.35L452.78 99.35L452.78 98.35L455.45 97.84L456.03 93.59L457.15 93.59L457.15 97.95L462.77 97.95L462.77 99.35L457.15 99.35L457.15 110.94Q457.15 112.88 457.87 113.88Q458.59 114.89 460.23 114.89Z M482.56 97.61L482.56 97.61Q484.87 97.61 486.41 98.68Q487.94 99.76 488.70 101.64Q489.45 103.52 489.45 105.94L489.45 105.94L489.45 107.15L476.42 107.15Q476.42 110.87 478.14 112.86Q479.86 114.85 483.06 114.85L483.06 114.85Q484.74 114.85 485.98 114.58Q487.21 114.31 488.72 113.64L488.72 113.64L488.72 115.19Q487.40 115.78 486.07 116.06Q484.74 116.33 483.01 116.33L483.01 116.33Q480.27 116.33 478.42 115.19Q476.57 114.06 475.63 111.98Q474.70 109.91 474.70 107.13L474.70 107.13Q474.70 104.43 475.60 102.27Q476.50 100.11 478.26 98.86Q480.01 97.61 482.56 97.61ZM482.55 99.05L482.55 99.05Q479.96 99.05 478.36 100.77Q476.75 102.49 476.47 105.72L476.47 105.72L487.71 105.72Q487.71 103.75 487.15 102.24Q486.58 100.73 485.44 99.89Q484.31 99.05 482.55 99.05Z M509.94 116.33L509.94 116.33Q506.24 116.33 504.31 114.00Q502.37 111.67 502.37 107.20L502.37 107.20Q502.37 102.52 504.41 100.06Q506.46 97.61 510.11 97.61L510.11 97.61Q511.67 97.61 512.82 98.09Q513.98 98.57 514.77 99.39Q515.55 100.21 515.99 101.26L515.99 101.26L516.12 101.26Q516.05 100.38 516.02 99.37Q515.99 98.35 515.99 97.51L515.99 97.51L515.99 90.17L517.66 90.17L517.66 116L516.30 116L516.09 112.70L515.99 112.70Q515.54 113.69 514.75 114.52Q513.96 115.35 512.78 115.84Q511.60 116.33 509.94 116.33ZM510.13 114.87L510.13 114.87Q513.31 114.87 514.66 112.89Q516.00 110.90 516.00 107.22L516.00 107.22L516.00 106.95Q516.00 103.13 514.66 101.10Q513.31 99.07 510.27 99.07L510.27 99.07Q507.27 99.07 505.68 101.16Q504.10 103.25 504.10 107.23L504.10 107.23Q504.10 110.99 505.58 112.93Q507.07 114.87 510.13 114.87Z"></path>
</svg>